<svg xmlns="http://www.w3.org/2000/svg" version="1.1" viewBox="0 0 48 60">
   <defs>
    <style>
      .st0 {
        fill: var(--bronze);
      }

      .st1 {
        fill: var(--white);
      }
    </style>
  </defs>
  <path class="st0" d="M48,0H0s-.02,27.7.02,30.66c.06,4.93,1.46,9.66,4.15,14.06,2.57,4.2,6.24,7.8,11.23,11.03,1.76,1.14,3.65,2.06,5.47,2.96.71.35,1.44.71,2.14,1.07.29.15.63.23.98.23.35,0,.69-.08.98-.23.71-.36,1.44-.72,2.14-1.07,1.82-.9,3.71-1.82,5.47-2.96,4.99-3.22,8.66-6.83,11.23-11.03,2.69-4.4,4.09-9.13,4.15-14.06.04-2.96.02-30.66.02-30.66ZM43.49,30.6c-.05,4.11-1.22,8.06-3.49,11.76-2.21,3.61-5.43,6.75-9.84,9.6-1.54,1-3.31,1.86-5.01,2.7h0c-.38.19-.76.38-1.15.57-.39-.19-.78-.38-1.15-.57-1.71-.84-3.47-1.71-5.01-2.7-4.41-2.85-7.63-5.99-9.84-9.6-2.26-3.7-3.44-7.65-3.49-11.76-.03-2.16-.02-17.94-.02-26.1h39.03c0,8.16,0,23.93-.02,26.1Z"/>
  <path class="st1" d="M25.35,43.93h0v-15.34h.55v-2.34l-.55-1.69v-5.09c2.99-.5,5.23-2.62,5.23-5.16,0-2.91-2.95-5.27-6.59-5.27s-6.59,2.36-6.59,5.27c0,2.54,2.25,4.66,5.23,5.16v5.09l-.55,1.69v2.34h.55v7.98h-4.03v.84h.6v1.11h.9v2.11h-.9v1.11h-.6v.84h4.03v1.35h0c.01.74.61,1.34,1.35,1.34s1.34-.6,1.35-1.34ZM22.68,11.85c0-.73.59-1.32,1.32-1.32s1.32.59,1.32,1.32-.59,1.32-1.32,1.32-1.32-.59-1.32-1.32Z"/>
</svg>